<svg width="65" height="68" viewBox="0 0 65 68" fill="none" xmlns="http://www.w3.org/2000/svg">
<path d="M26.8972 17.7205C26.9338 17.721 26.9702 17.727 27.0051 17.7382C27.2339 17.8913 30.7776 24.9886 32.2496 28.9214L32.5319 28.9361C34.721 25.2879 38.8916 18.4042 39.2227 18.3745C39.23 18.3744 39.2373 18.3748 39.2446 18.3756C39.9084 18.4102 46.6119 20.601 46.6335 21.1594C46.6533 21.7719 38.6931 34.3835 38.3431 34.8355C39.9963 37.8841 46.0101 49.7657 45.9487 50.0918C45.799 50.4412 39.7683 52.1389 37.843 52.0386C37.7525 52.0347 37.6623 52.0241 37.5733 52.0069C37.2958 51.8982 33.7581 44.6601 31.9571 40.7104L31.6751 40.6957C29.5759 44.4423 25.4541 51.2815 25.2193 51.2693C25.0834 51.2837 24.9464 51.2865 24.8098 51.2775C22.746 51.17 17.2951 49.2781 17.2234 48.925C17.1443 48.5917 24.0587 37.2423 26.1262 34.1992C25.8629 33.7623 19.2096 20.3897 19.2839 19.7821C19.3081 19.2438 25.8464 17.6665 26.8977 17.7213L26.8972 17.7205ZM27.0298 14.7755C25.8782 14.7155 23.3528 15.3116 21.9496 15.6723C21.2299 15.8563 20.1917 16.141 19.3359 16.4424C18.4845 16.7426 16.5109 17.4365 16.3417 19.5009C16.2553 20.3948 16.5248 21.0953 17.6012 23.4419C18.1685 24.6786 18.9507 26.3219 19.923 28.3259C20.7501 30.0291 21.9149 32.3956 22.7168 33.9941C21.4739 35.9249 19.75 38.713 18.3409 41.0362C17.2874 42.7728 16.3844 44.2895 15.7291 45.4229C14.4849 47.5757 14.0582 48.3131 14.3415 49.552C14.7064 51.1878 16.1617 51.7894 17.0359 52.1509C17.6667 52.4116 18.4965 52.7122 19.3724 52.9972C20.6695 53.4195 23.0833 54.1402 24.677 54.2232C24.9327 54.2381 25.1889 54.235 25.4439 54.2139C26.856 54.1253 27.6144 53.0721 27.8772 52.7083C28.043 52.4783 28.251 52.1697 28.5132 51.7651C28.9616 51.0734 29.5706 50.0951 30.2744 48.9362C30.6951 48.2445 31.1316 47.5165 31.5648 46.7876C31.9432 47.5701 32.3235 48.3505 32.6879 49.0887C33.2978 50.3246 33.8279 51.3699 34.2199 52.1125C34.9434 53.4828 35.3797 54.3099 36.5117 54.7527L36.7495 54.8458L36.9991 54.8969C37.2336 54.944 37.4712 54.9734 37.7098 54.9849C39.1818 55.0615 41.5723 54.5408 43.3183 54.0907C44.2517 53.8499 45.1496 53.5889 45.8472 53.3551C46.848 53.0194 48.0933 52.602 48.6641 51.2701L48.7902 50.9754L48.8499 50.6604C49.0518 49.5927 48.7608 48.988 47.678 46.7378C47.125 45.589 46.3462 44.0125 45.4262 42.1788C44.1096 39.5554 42.728 36.8519 41.7643 35.008C42.8304 33.3374 44.3779 30.8576 45.1423 29.6211C46.3099 27.7322 47.2528 26.1768 47.9454 24.9978C49.3014 22.6879 49.6154 22.0499 49.5844 21.0868L49.5848 21.0779L49.5852 21.0688C49.5069 19.0225 47.6417 18.1968 46.7452 17.7992C45.9123 17.4301 44.8725 17.0472 44.1466 16.7911C42.766 16.3037 40.3117 15.479 39.3774 15.4304C39.2803 15.4253 39.1825 15.4246 39.0872 15.4283L39.0117 15.431L38.9374 15.438C37.4233 15.5744 36.7111 16.6411 35.8863 17.8764C35.4348 18.5527 34.8218 19.5121 34.0646 20.7288C33.6623 21.3749 33.2392 22.0612 32.8155 22.7552C32.4406 21.9436 32.0942 21.2147 31.8254 20.6535C31.2918 19.5431 30.7646 18.4805 30.339 17.6596C29.6707 16.3685 29.3657 15.779 28.6412 15.294L28.3699 15.1123L28.0662 14.9936C27.7355 14.8657 27.3865 14.7924 27.0329 14.7767L27.0298 14.7755Z" fill="black"/>
<path d="M28.2205 15.8218C28.257 15.8223 28.2933 15.8282 28.3281 15.8395C28.5571 15.9926 32.1008 23.0898 33.5729 27.0226L33.8539 27.0373C36.0425 23.3891 40.2134 16.5057 40.5444 16.4757C40.5518 16.4757 40.5592 16.476 40.5666 16.4768C41.2304 16.5114 47.9339 18.7022 47.9557 19.2607C47.9755 19.8734 40.0151 32.4847 39.6651 32.9367C41.3183 35.9853 47.3324 47.867 47.2707 48.193C47.1207 48.5424 41.0901 50.2401 39.165 50.1398C39.0745 50.1359 38.9843 50.1253 38.8953 50.1081C38.6177 49.9996 35.0801 42.7615 33.2791 38.8116L32.9971 38.7969C30.8979 42.5437 26.7761 49.383 26.541 49.3707C26.4051 49.3849 26.2681 49.3876 26.1316 49.3787C24.068 49.2712 18.6171 47.3796 18.5454 47.0262C18.466 46.6929 25.3807 35.3435 27.4482 32.3004C27.1849 31.8638 20.5311 18.4909 20.6057 17.8833C20.6298 17.345 27.1681 15.7677 28.2197 15.8225L28.2205 15.8218ZM28.3518 12.8767C27.2002 12.8168 24.6745 13.4128 23.2716 13.7735C22.5517 13.9575 21.5137 14.2423 20.6578 14.5436C19.8065 14.8438 17.8329 15.5377 17.6635 17.6021C17.577 18.4962 17.8465 19.1968 18.923 21.5431C19.4903 22.7798 20.2725 24.4231 21.2448 26.4274C22.0718 28.1303 23.2369 30.4968 24.0386 32.0953C22.7957 34.0261 21.0717 36.8144 19.6627 39.1373C18.6091 40.874 17.7064 42.3909 17.0508 43.5241C15.8069 45.677 15.38 46.4143 15.6633 47.6532C16.0279 49.289 17.4837 49.8906 18.3576 50.2521C18.9887 50.5128 19.8185 50.8134 20.6941 51.0984C21.9912 51.5207 24.405 52.2414 25.9987 52.3244C26.2545 52.3391 26.5108 52.336 26.7658 52.3151C28.1777 52.2263 28.9364 51.1733 29.1992 50.8093C29.365 50.5793 29.5728 50.2707 29.8349 49.8661C30.2834 49.1744 30.8924 48.196 31.5964 47.0371C32.0168 46.3455 32.4536 45.6175 32.8868 44.8886C33.265 45.6711 33.6452 46.4514 34.0099 47.1896C34.6198 48.4256 35.1499 49.4711 35.5419 50.2135C36.2652 51.5837 36.7002 52.4108 37.8337 52.8536L38.0715 52.9467L38.3209 52.9979C38.5554 53.045 38.793 53.0744 39.0316 53.0858C40.5034 53.1624 42.8938 52.642 44.64 52.1916C45.573 51.9511 46.4714 51.6899 47.1687 51.456C48.1695 51.1203 49.4148 50.7029 49.9856 49.371L50.112 49.0764L50.1714 48.7613C50.3733 47.6936 50.0823 47.089 48.9996 44.8387C48.447 43.6899 47.6678 42.1135 46.7477 40.2797C45.4316 37.6564 44.0495 34.9528 43.0863 33.1089C44.1522 31.4384 45.6999 28.9585 46.4638 27.722C47.6314 25.8334 48.5748 24.2777 49.2669 23.099C50.6234 20.7888 50.9374 20.1512 50.9059 19.1877L50.9063 19.1789L50.9067 19.1698C50.8287 17.1235 48.9634 16.2977 48.0672 15.9004C47.2338 15.531 46.194 15.1484 45.4686 14.8921C44.0877 14.4046 41.6322 13.5799 40.6994 13.5313C40.6011 13.5262 40.5042 13.5256 40.4092 13.5293L40.3337 13.532L40.2594 13.5389C38.7453 13.6754 38.0333 14.7423 37.2083 15.9774C36.7571 16.6537 36.144 17.6131 35.3864 18.83C34.9845 19.4759 34.5627 20.1623 34.1372 20.8564C33.7626 20.0446 33.4162 19.3157 33.1471 18.7547C32.6136 17.6443 32.0863 16.5814 31.6608 15.7606C30.9924 14.4709 30.6872 13.88 29.9629 13.3949L29.6916 13.2132L29.3879 13.0948C29.0573 12.9667 28.7082 12.8933 28.3547 12.8776L28.3518 12.8767Z" fill="black"/>
<path d="M32.2567 38.761C30.1601 42.5096 26.0433 49.352 25.8087 49.3397C24.1993 49.5376 17.8954 47.3728 17.8183 46.9923C17.7391 46.6587 24.6452 35.3042 26.7104 32.2598C26.4474 31.8228 19.7961 18.441 19.87 17.8331C19.895 17.2701 27.0301 15.5736 27.5854 15.7903C27.8137 15.9435 31.3566 23.0455 32.8287 26.9809L33.1103 26.9956C35.2968 23.3458 39.4623 16.4592 39.7931 16.4292C40.3111 16.4096 47.1772 18.6506 47.1993 19.2165C47.219 19.8296 39.268 32.4466 38.9184 32.8988C40.5707 35.9494 46.583 47.8391 46.5214 48.1653C46.3642 48.5335 39.6921 50.3958 38.153 50.0799C37.8757 49.9713 34.3391 42.7284 32.5385 38.7758L32.2567 38.761Z" fill="#FCD015"/>
<path d="M38.272 50.0752C37.9943 49.9665 34.4545 42.7158 32.6535 38.7591L32.3702 38.7443C30.2713 42.497 26.1501 49.347 25.9152 49.3347C24.4818 49.5111 19.3253 47.8139 18.1541 47.17L18.189 46.3856C19.476 43.9637 24.9536 34.9943 26.7914 32.2764L39.0631 32.9183C40.7495 36.0394 46.7113 47.8331 46.6502 48.158C46.5005 48.508 40.4703 50.2072 38.5432 50.1066C38.4522 50.1029 38.3615 50.0924 38.272 50.0752Z" fill="#FBB500"/>
<path d="M39.1107 50.8715C38.9894 50.8659 38.8685 50.8514 38.7492 50.8281L38.6276 50.792C38.2984 50.6631 38.1621 50.6098 35.9942 46.2203C35.0197 44.2477 33.9322 41.9778 33.081 40.1447C32.1024 41.8579 30.8413 43.9968 29.6996 45.8767C27.2118 49.9723 27.0415 50.1259 26.5647 50.1072C25.4321 50.2067 23.0721 49.5331 21.7488 49.116C17.9742 47.9266 17.8921 47.5223 17.8194 47.1645C17.7362 46.8208 17.6977 46.6532 21.557 40.2908C23.5366 37.0272 25.5358 33.8321 26.588 32.2465C26.0298 31.1569 24.5763 28.2349 23.2342 25.471C19.8583 18.5195 19.8339 18.0973 19.8686 17.8021C19.8876 17.6544 19.9412 17.5136 20.0248 17.3908C20.1085 17.268 20.2199 17.1668 20.3502 17.0952C21.2928 16.4853 27.6381 14.7797 28.5895 15.1511L28.6656 15.1797L28.7335 15.2253C28.8883 15.3291 29.1223 15.4859 31.1453 19.6954C31.6874 20.8227 32.9121 23.4124 33.8211 25.6457C39.7402 15.8039 39.9745 15.7829 40.4694 15.7383L40.5074 15.7358C41.2791 15.7079 47.4725 17.7619 48.3726 18.5946C48.4658 18.6746 48.5418 18.7725 48.5962 18.8824C48.6506 18.9923 48.6821 19.112 48.6889 19.2341C48.6997 19.5424 48.7103 19.8565 44.5738 26.5457C42.9408 29.1876 41.1983 31.9446 40.5215 32.9792C41.4194 34.6632 43.1703 38.0758 44.7661 41.2549C48.0807 47.86 48.0526 48.0074 47.9916 48.331L47.9767 48.4094L47.9454 48.4816C47.8259 48.7608 47.6624 49.143 43.7812 50.1168C42.5012 50.4423 40.3093 50.9339 39.1107 50.8715ZM32.572 38.0354L33.7608 38.0973L33.9483 38.5086C35.7363 42.4295 38.5662 48.1873 39.295 49.4098C40.7124 49.4467 44.8818 48.3686 46.3416 47.8329C45.2863 45.4872 40.6731 36.3425 39.0143 33.2826L38.7848 32.8595L39.0778 32.4811C39.5209 31.8821 45.8809 21.7821 47.0611 19.4837C45.8524 18.862 42.0382 17.5672 40.811 17.2695C40.1943 18.0961 38.2838 21.0897 34.4861 27.4189L34.2597 27.7959L33.0498 27.7329L32.8786 27.2756C31.5441 23.71 28.6776 17.9233 27.9194 16.5689C26.6956 16.6904 22.7109 17.6536 21.4623 18.1811C22.3879 20.5375 27.7309 31.3188 28.0802 31.9266L28.3108 32.3273L28.0578 32.716C26.1844 35.475 20.7048 44.4633 19.4841 46.7396C20.8677 47.353 24.7945 48.5938 26.1956 48.6449C27.0197 47.5122 30.3864 41.9359 32.35 38.4313L32.572 38.0354Z" fill="#FCD015"/>
</svg>
