<svg width="53" height="54" viewBox="0 0 53 54" fill="none" xmlns="http://www.w3.org/2000/svg">
<path d="M45.7776 7.21351C41.3059 2.49382 35.0319 0 27.6323 0C22.0884 0 17.183 1.47781 13.1743 4.30363C10.4779 5.64454 8.08186 7.51122 6.12958 9.792C2.17673 14.3819 0 20.5508 0 27.1617C0 42.9384 10.0032 53.5384 24.8917 53.5384C30.5755 53.5384 35.5572 52.0519 39.5805 49.2093C42.3138 47.8555 44.7325 45.9513 46.6823 43.6182C50.4878 39.0869 52.5837 32.9634 52.5837 26.3757C52.5843 18.5393 50.2307 11.9132 45.7776 7.21351ZM27.8144 47.9237C14.8891 47.9237 6.81912 38.8341 6.81912 25.4115C6.81912 18.52 9.59027 11.73 15.1407 7.66757C18.1304 6.26833 21.4031 5.56579 24.7086 5.61365C37.4514 5.61365 45.7649 14.1001 45.7649 28.1259C45.7649 34.8927 43.1895 41.7527 37.5972 45.8605C34.8757 47.1644 31.629 47.9237 27.8144 47.9237Z" fill="black"/>
<path d="M27.2308 13.6741C24.6804 13.6741 22.5851 14.4866 20.9976 15.9547C16.8302 17.4055 14.5372 21.7407 14.5372 27.7623C14.5372 34.5047 18.2382 39.8011 24.0636 39.8011C26.6756 39.8011 28.727 39.0009 30.2473 37.5559C34.5002 36.1297 36.513 31.7198 36.513 25.5918C36.5152 17.5269 32.6312 13.6741 27.2308 13.6741ZM26.9879 34.1875C23.1188 34.1875 21.3567 29.9502 21.3567 26.013C21.3567 23.1969 21.9735 20.8464 23.0955 19.3943V19.3927C23.4951 19.3217 23.9004 19.2865 24.3064 19.2877C27.882 19.2877 29.6955 21.9973 29.6955 27.3408C29.6955 30.8206 29.0251 32.8913 28.1245 34.1237C27.7477 34.1726 27.3679 34.1939 26.9879 34.1875Z" fill="black"/>
<path d="M48.1044 26.4008C48.1044 37.0542 41.7326 47.9489 27.2299 47.9489C14.3045 47.9489 6.23456 38.8592 6.23456 25.4366C6.23456 14.5423 13.1524 3.88853 27.0477 3.88853C39.7909 3.88853 48.1044 12.3753 48.1044 26.4008ZM27.2299 13.6992C20.9798 13.6992 17.4601 18.5748 17.4601 26.0382C17.4601 32.7809 21.161 38.077 26.987 38.077C33.4799 38.077 36.514 33.1415 36.514 25.617C36.5143 17.552 32.6306 13.6992 27.2302 13.6992H27.2299Z" fill="#FCD015"/>
<path d="M26.9955 47.2981C24.0197 47.3319 21.0663 46.7837 18.3041 45.685C15.7968 44.6672 13.5456 43.1151 11.71 41.1386C9.84229 39.0989 8.41305 36.7031 7.50945 34.0974C6.49896 31.1695 5.98884 28.0947 6.00019 25L17.2289 25C17.227 25.122 17.2257 25.2525 17.2257 25.3864C17.2154 26.9855 17.441 28.5775 17.8951 30.1119C18.2972 31.4886 18.9439 32.7829 19.8046 33.9341C20.6001 34.9983 21.6258 35.8723 22.8063 36.492C24.0258 37.1162 25.3801 37.4367 26.7523 37.4259C28.2094 37.4535 29.6537 37.1503 30.9746 36.5397C32.1605 35.9619 33.1813 35.0983 33.9435 34.0278C34.7704 32.8416 35.3657 31.512 35.6985 30.1081C36.1017 28.4353 36.2969 26.7198 36.2796 25L47.8619 25C47.8674 25.2534 47.87 25.5059 47.87 25.75C47.8704 27.0838 47.7694 28.4158 47.5678 29.7345C47.3671 31.0492 47.0594 32.3457 46.6477 33.6111C45.8454 36.132 44.5634 38.4769 42.8712 40.519C41.1098 42.6238 38.8884 44.303 36.3754 45.4293C33.4195 46.7108 30.2209 47.348 26.9955 47.2981Z" fill="#FBB500"/>
</svg>
